<svg xmlns:xlink="http://www.w3.org/1999/xlink" xmlns="http://www.w3.org/2000/svg" id="products-mindmeister-latest-logo" width="66" height="66" fill="none" viewBox="3 3 60 60">
  <!-- <path fill="#000" d="m90.3499 31.5969-8.5672-12.6186h-4.8312v27.2645h4.5193V26.1826l8.8418 13.0492 8.8791-13.1272v20.1382h4.5193V18.9783h-4.8685l-8.4926 12.6186Zm40.3481-4.3632c-1.106-.6238-2.435-.9357-3.994-.9357-1.56 0-2.858.3831-3.974 1.1493-.752.5153-1.379 1.1934-1.898 2.024l-.207-2.7055h-4.089v19.4738h4.364V36.0755c0-1.8443.403-3.258 1.207-4.2446.803-.9866 1.932-1.468 3.386-1.4409.858 0 1.604.1695 2.241.5052.638.339 1.129.9289 1.482 1.7731.349.8442.525 2.0443.525 3.6039v9.9707h4.364V35.2585c0-2.102-.292-3.8107-.878-5.1227-.583-1.3121-1.428-2.2783-2.533-2.9021h.004Zm20.958 2.3765c-.529-.8204-1.169-1.5019-1.929-2.0443-1.183-.8442-2.59-1.2646-4.224-1.2646-1.766 0-3.306.4238-4.614 1.2646-1.312.8442-2.336 2.024-3.079 3.5428-.739 1.5189-1.108 3.3157-1.108 5.394 0 2.0782.369 3.8445 1.108 5.3735.739 1.5324 1.767 2.719 3.079 3.5632 1.312.8442 2.848 1.2646 4.614 1.2646 1.637 0 3.044-.4238 4.224-1.2646.777-.556 1.431-1.2612 1.967-2.1155l.156 2.9122h4.129V18.9716h-4.323v10.6386Zm-.644 10.1268c-.427.9357-1.027 1.668-1.79 2.2003-.766.5322-1.641.8001-2.627.8001-1.038 0-1.967-.2679-2.784-.8001-.817-.5323-1.454-1.2646-1.909-2.2003-.454-.9357-.695-2.0105-.722-3.231.027-1.2205.265-2.2986.722-3.2309.455-.9357 1.085-1.6612 1.889-2.1799.803-.5187 1.725-.7798 2.766-.7798s1.902.2611 2.668.7798c.767.5187 1.363 1.2476 1.791 2.1799.427.9357.644 2.0104.644 3.2309s-.214 2.2987-.644 3.231h-.004Zm22.718-8.1401-8.567-12.6186h-4.831v27.2645h4.519V26.1826l8.842 13.0492 8.879-13.1272v20.1382h4.519V18.9783h-4.868l-8.493 12.6186Zm34.137-.0779c-.817-1.6883-1.929-2.98-3.329-3.8751-1.404-.895-2.973-1.3425-4.713-1.3425-1.922 0-3.627.4339-5.122 1.3052s-2.669 2.0715-3.526 3.6039c-.858 1.5324-1.285 3.2987-1.285 5.2956 0 1.9969.42 3.7666 1.264 5.2956.845 1.5324 2.001 2.7326 3.465 3.6039 1.468.8679 3.15 1.3052 5.045 1.3052 1.478 0 2.797-.2068 3.953-.6238 1.156-.4136 2.156-1.0137 3-1.79.845-.7798 1.54-1.6884 2.085-2.7258l-3.854-1.6341c-.441.8577-1.051 1.5527-1.831 2.085s-1.766.7967-2.96.7967c-1.037 0-1.986-.2339-2.844-.7018-.858-.4678-1.546-1.1357-2.065-2.007-.437-.7323-.678-1.5867-.749-2.5495h14.693c0-2.3359-.41-4.3497-1.227-6.0381v-.0034Zm-13.191 2.6885c.074-.8204.318-1.5188.742-2.085.519-.6882 1.17-1.2069 1.946-1.5561.78-.3492 1.56-.5255 2.336-.5255.776 0 1.526.1763 2.241.5255.715.3492 1.305.8713 1.773 1.5561.383.5662.6 1.2646.671 2.085h-9.709Zm37.052 1.9663c-.804-.6611-1.845-1.1493-3.116-1.4612l-2.299-.5458c-.83-.2068-1.468-.4746-1.908-.7967-.441-.3255-.661-.6815-.661-1.0713 0-.6747.247-1.2002.739-1.5765.491-.3763 1.18-.5662 2.064-.5662.885 0 1.689.1763 2.414.5255.726.3492 1.221.851 1.482 1.4985l3.621-1.6375c-.285-.8577-.794-1.6036-1.519-2.241-.729-.6373-1.59-1.1289-2.59-1.4781-1.001-.3526-2.099-.5255-3.292-.5255-2.363 0-4.174.5322-5.435 1.5968-1.261 1.0645-1.888 2.5698-1.888 4.5192 0 1.3256.518 2.4987 1.556 3.5259 1.037 1.0273 2.478 1.7731 4.322 2.2376l1.831.5051c.858.2068 1.519.4747 1.987.8001.468.3255.702.7866.702 1.3833s-.306 1.1086-.916 1.4612c-.61.3492-1.42.5255-2.434.5255-.936 0-1.787-.2475-2.549-.7391-.767-.4916-1.343-1.1052-1.733-1.8307l-3.777 1.6747c.414.9629 1.014 1.8003 1.79 2.5122.78.7154 1.712 1.2646 2.804 1.6545 1.092.3899 2.285.5831 3.584.5831 1.454 0 2.753-.2407 3.895-.7221 1.143-.4814 2.044-1.1629 2.706-2.0443.661-.8815.993-1.9088.993-3.0784 0-.8306-.193-1.6545-.583-2.4749-.39-.8171-.987-1.5561-1.79-2.2206v.0067Zm14.402 6.3668c-.312.1051-.597.156-.858.156-.831 0-1.461-.234-1.888-.7018-.428-.4679-.645-1.1561-.645-2.0647v-9.425h5.259v-3.7394h-5.259v-6.0754h-4.322v6.0754h-3.235v3.7394h3.235v10.2421c0 1.9222.539 3.397 1.617 4.4209 1.078 1.0272 2.641 1.5392 4.692 1.5392.675 0 1.349-.1221 2.024-.3696s1.349-.6034 2.024-1.0713l-1.597-3.3123c-.39.2848-.739.4814-1.051.5831l.004.0034Zm20.931-11.0216c-.817-1.6883-1.929-2.98-3.329-3.8751-1.404-.895-2.973-1.3425-4.713-1.3425-1.922 0-3.627.4339-5.122 1.3052s-2.668 2.0715-3.526 3.6039c-.858 1.5324-1.285 3.2987-1.285 5.2956 0 1.9969.42 3.7666 1.265 5.2956.844 1.5324 2 2.7326 3.464 3.6039 1.468.8679 3.15 1.3052 5.045 1.3052 1.482 0 2.797-.2068 3.953-.6238 1.156-.4136 2.156-1.0137 3.001-1.79.844-.7798 1.539-1.6884 2.085-2.7258l-3.855-1.6341c-.441.8577-1.051 1.5527-1.831 2.085s-1.766.7967-2.96.7967c-1.037 0-1.986-.2339-2.844-.7018-.858-.4678-1.546-1.1357-2.065-2.007-.437-.7323-.678-1.5867-.749-2.5495h14.693c0-2.3359-.41-4.3497-1.227-6.0381v-.0034Zm-13.188 2.6885c.075-.8204.319-1.5188.746-2.085.519-.6882 1.17-1.2069 1.946-1.5561.78-.3492 1.559-.5255 2.336-.5255.776 0 1.525.1763 2.241.5255.715.3492 1.305.8713 1.773 1.5561.383.5662.6 1.2646.671 2.085h-9.713Zm24.308-6.5264c-1.146.5899-2.098 1.4545-2.861 2.5936v-3.5056h-4.363v19.4738h4.363V35.8042c0-1.1934.325-2.1562.973-2.8817.647-.7255 1.498-1.251 2.549-1.5765 1.051-.3255 2.173-.4882 3.37-.4882v-4.1666c-1.403 0-2.746.3322-4.031.9933v-.0034Zm-165.591-.9152h-4.322v19.4737h4.322V26.7659Zm-2.163-8.8013c-1.498 0-2.712 1.2137-2.712 2.7122 0 1.4985 1.214 2.7122 2.712 2.7122 1.499 0 2.712-1.2137 2.712-2.7122 0-1.4985-1.213-2.7122-2.712-2.7122Zm105.78 8.8013h-4.323v19.4737h4.323V26.7659Zm-2.163-8.8013c-1.498 0-2.712 1.2137-2.712 2.7122 0 1.4985 1.214 2.7122 2.712 2.7122 1.499 0 2.712-1.2137 2.712-2.7122 0-1.4985-1.213-2.7122-2.712-2.7122Z"/> -->
  <path fill="#000" d="M57.6607 33C60.9518 29.8284 63 25.3752 63 20.442 63 10.8094 55.1906 3 45.558 3 40.6266 3 36.1733 5.0482 33 8.3393 29.8284 5.0482 25.3752 3 20.442 3 10.8094 3 3 10.8094 3 20.442 3 25.3734 5.0482 29.8266 8.3393 33 5.0482 36.1716 3 40.6248 3 45.558 3 55.1906 10.8094 63 20.442 63c4.9314 0 9.3846-2.0482 12.558-5.3393C36.1716 60.9518 40.6248 63 45.558 63 55.1906 63 63 55.1906 63 45.558c0-4.9314-2.0482-9.3847-5.3393-12.558Z"/>
  <path fill="#fff" d="M46.6666 19.9555c-1.3115-1.3114-3.4369-1.3114-4.7466 0l-8.9201 8.9201-2.1799-2.1799-4.7466 4.7466 6.9265 6.9265 13.6667-13.6667c1.3114-1.3114 1.3114-3.4369 0-4.7466Zm-5.7329 22.9437c0 1.8547 1.5049 3.356 3.3578 3.356 1.8529 0 3.356-1.5031 3.356-3.356V26.7819l-6.7138 6.7138v9.4035Z"/>
  <path fill="#fff" d="M24.0798 19.9573c-.9598-.9599-2.4032-1.2464-3.6584-.7278a3.357 3.357 0 0 0-2.0726 3.1011v20.5686c0 1.8547 1.503 3.356 3.356 3.356 1.8529 0 3.356-1.5031 3.356-3.356V29.3556l4.2086-4.2087-5.1896-5.1896Z"/>
</svg>